<svg width="30" height="20" viewBox="0 0 30 20" fill="none" xmlns="http://www.w3.org/2000/svg">
<path d="M0 0.069458H30V19.9305H0V0.069458Z" fill="white"/>
<path d="M0 0.069458H30V1.59726H0V0.069458ZM0 3.12506H30V4.65285H0V3.12506ZM0 6.18053H30V7.70833H0V6.18053ZM0 9.23612H30V10.7639H0V9.23612ZM0 12.2916H30V13.8194H0V12.2916ZM0 15.3472H30V16.875H0V15.3472ZM0 18.4027H30V19.9305H0V18.4027Z" fill="#B22234"/>
<path d="M0 0.069458H12V10.7638H0V0.069458Z" fill="#3C3B6E"/>
<path d="M0.563812 0.937656L0.849712 1.19891L0.740512 1.62168L1.02631 1.36042L1.31221 1.62168L1.20301 1.19891L1.48881 0.937656H1.13551L1.02631 0.515015L0.917112 0.937656H0.563812ZM2.55331 0.937656L2.83911 1.19891L2.72991 1.62168L3.01581 1.36042L3.30171 1.62168L3.19251 1.19891L3.47831 0.937656H3.12501L3.01581 0.515015L2.90661 0.937656H2.55331ZM4.54281 0.937656L4.82861 1.19891L4.71941 1.62168L5.00531 1.36042L5.29111 1.62168L5.18191 1.19891L5.46781 0.937656H5.11451L5.00531 0.515015L4.89611 0.937656H4.54281ZM6.53231 0.937656L6.81811 1.19891L6.70891 1.62168L6.99481 1.36042L7.28061 1.62168L7.17141 1.19891L7.45731 0.937656H7.10391L6.99481 0.515015L6.88561 0.937656H6.53231ZM8.52171 0.937656L8.80761 1.19891L8.69841 1.62168L8.98421 1.36042L9.27011 1.62168L9.16091 1.19891L9.44671 0.937656H9.09341L8.98421 0.515015L8.87501 0.937656H8.52171ZM10.5112 0.937656L10.797 1.19891L10.6878 1.62168L10.9737 1.36042L11.2595 1.62168L11.1503 1.19891L11.4362 0.937656H11.0829L10.9737 0.515015L10.8645 0.937656H10.5112ZM1.55851 2.01023L1.84441 2.27149L1.73521 2.69413L2.02111 2.43288L2.30691 2.69413L2.19771 2.27149L2.48361 2.01023H2.13021L2.02111 1.58747L1.91191 2.01023H1.55851ZM3.54801 2.01023L3.83391 2.27149L3.72471 2.69413L4.01051 2.43288L4.29641 2.69413L4.18721 2.27149L4.47301 2.01023H4.11971L4.01051 1.58747L3.90131 2.01023H3.54801ZM5.53751 2.01023L5.82341 2.27149L5.71421 2.69413L6.00001 2.43288L6.28591 2.69413L6.17671 2.27149L6.46251 2.01023H6.10921L6.00001 1.58747L5.89081 2.01023H5.53751ZM7.52701 2.01023L7.81281 2.27149L7.70361 2.69413L7.98951 2.43288L8.27531 2.69413L8.16611 2.27149L8.45201 2.01023H8.09871L7.98951 1.58747L7.88031 2.01023H7.52701ZM9.51641 2.01023L9.80231 2.27149L9.69311 2.69413L9.97891 2.43288L10.2648 2.69413L10.1556 2.27149L10.4414 2.01023H10.0881L9.97891 1.58747L9.86981 2.01023H9.51641ZM0.563812 3.08269L0.849712 3.34395L0.740512 3.76671L1.02631 3.50545L1.31221 3.76671L1.20301 3.34395L1.48881 3.08269H1.13551L1.02631 2.66005L0.917112 3.08269H0.563812ZM2.55331 3.08269L2.83911 3.34395L2.72991 3.76671L3.01581 3.50545L3.30171 3.76671L3.19251 3.34395L3.47831 3.08269H3.12501L3.01581 2.66005L2.90661 3.08269H2.55331ZM4.54281 3.08269L4.82861 3.34395L4.71941 3.76671L5.00531 3.50545L5.29111 3.76671L5.18191 3.34395L5.46781 3.08269H5.11451L5.00531 2.66005L4.89611 3.08269H4.54281ZM6.53231 3.08269L6.81811 3.34395L6.70891 3.76671L6.99481 3.50545L7.28061 3.76671L7.17141 3.34395L7.45731 3.08269H7.10391L6.99481 2.66005L6.88561 3.08269H6.53231ZM8.52171 3.08269L8.80761 3.34395L8.69841 3.76671L8.98421 3.50545L9.27011 3.76671L9.16091 3.34395L9.44671 3.08269H9.09341L8.98421 2.66005L8.87501 3.08269H8.52171ZM10.5112 3.08269L10.797 3.34395L10.6878 3.76671L10.9737 3.50545L11.2595 3.76671L11.1503 3.34395L11.4362 3.08269H11.0829L10.9737 2.66005L10.8645 3.08269H10.5112ZM1.58311 4.15879L1.86891 4.42005L1.75981 4.84269L2.04561 4.58143L2.33151 4.84269L2.22231 4.41992L2.50811 4.15879H2.15481L2.04561 3.73602L1.93641 4.15879H1.58311ZM3.57261 4.15879L3.85841 4.42005L3.74921 4.84269L4.03511 4.58143L4.32091 4.84269L4.21171 4.41992L4.49761 4.15879H4.14431L4.03511 3.73602L3.92591 4.15879H3.57261ZM5.56211 4.15879L5.84791 4.42005L5.73871 4.84269L6.02461 4.58143L6.31041 4.84269L6.20121 4.41992L6.48711 4.15879H6.13371L6.02461 3.73602L5.91541 4.15879H5.56211ZM7.55151 4.15879L7.83741 4.42005L7.72821 4.84269L8.01401 4.58143L8.29991 4.84269L8.19071 4.41992L8.47651 4.15879H8.12321L8.01401 3.73602L7.90481 4.15879H7.55151ZM9.54101 4.15879L9.82681 4.42005L9.71761 4.84269L10.0035 4.58143L10.2893 4.84269L10.1801 4.41992L10.466 4.15879H10.1127L10.0035 3.73602L9.89431 4.15879H9.54101ZM0.594012 5.22231L0.879912 5.48344L0.770712 5.90621L1.05651 5.64495L1.34241 5.90621L1.23321 5.48344L1.51901 5.22231H1.16571L1.05651 4.79954L0.947312 5.22231H0.594012ZM2.58351 5.22231L2.86931 5.48344L2.76011 5.90621L3.04601 5.64495L3.33181 5.90621L3.22271 5.48344L3.50851 5.22231H3.15521L3.04601 4.79954L2.93681 5.22231H2.58351ZM4.57301 5.22231L4.85881 5.48344L4.74961 5.90621L5.03551 5.64495L5.32131 5.90621L5.21211 5.48344L5.49801 5.22231H5.14471L5.03551 4.79954L4.92631 5.22231H4.57301ZM6.56241 5.22231L6.84831 5.48344L6.73911 5.90621L7.02491 5.64495L7.31081 5.90621L7.20161 5.48344L7.48751 5.22231H7.13411L7.02491 4.79954L6.91581 5.22231H6.56241ZM8.55191 5.22231L8.83771 5.48344L8.72861 5.90621L9.01441 5.64495L9.30031 5.90621L9.19111 5.48344L9.47691 5.22231H9.12361L9.01441 4.79954L8.90521 5.22231H8.55191ZM10.5414 5.22231L10.8272 5.48344L10.718 5.90621L11.0039 5.64495L11.2897 5.90621L11.1805 5.48344L11.4664 5.22231H11.1131L11.0039 4.79954L10.8947 5.22231H10.5414ZM0.612712 7.33325L0.898512 7.59451L0.789312 8.01728L1.07521 7.75602L1.36101 8.01728L1.25181 7.59451L1.53771 7.33325H1.18441L1.07521 6.91061L0.966012 7.33325H0.612712ZM2.60211 7.33325L2.88801 7.59451L2.77881 8.01728L3.06461 7.75602L3.35051 8.01728L3.24131 7.59451L3.52711 7.33325H3.17381L3.06461 6.91061L2.95541 7.33325H2.60211ZM4.59161 7.33325L4.87741 7.59451L4.76831 8.01728L5.05411 7.75602L5.34001 8.01728L5.23081 7.59451L5.51661 7.33325H5.16331L5.05411 6.91061L4.94491 7.33325H4.59161ZM6.58111 7.33325L6.86691 7.59451L6.75771 8.01728L7.04361 7.75602L7.32941 8.01728L7.22031 7.59451L7.50611 7.33325H7.15281L7.04361 6.91061L6.93441 7.33325H6.58111ZM8.57051 7.33325L8.85641 7.59451L8.74721 8.01728L9.03301 7.75602L9.31891 8.01728L9.20971 7.59451L9.49561 7.33325H9.14221L9.03301 6.91061L8.92391 7.33325H8.57051ZM10.56 7.33325L10.8458 7.59451L10.7367 8.01728L11.0225 7.75602L11.3084 8.01728L11.1992 7.59451L11.485 7.33325H11.1317L11.0225 6.91061L10.9133 7.33325H10.56ZM0.588412 9.4691L0.874212 9.73036L0.765012 10.1531L1.05091 9.89187L1.33671 10.1531L1.22751 9.73036L1.51341 9.4691H1.16001L1.05091 9.04646L0.941712 9.4691H0.588412ZM2.57781 9.4691L2.86371 9.73036L2.75451 10.1531L3.04031 9.89187L3.32621 10.1531L3.21701 9.73036L3.50281 9.4691H3.14951L3.04031 9.04646L2.93111 9.4691H2.57781ZM4.56731 9.4691L4.85311 9.73036L4.74401 10.1531L5.02981 9.89187L5.31571 10.1531L5.20651 9.73036L5.49231 9.4691H5.13901L5.02981 9.04646L4.92061 9.4691H4.56731ZM6.55681 9.4691L6.84261 9.73036L6.73341 10.1531L7.01931 9.89187L7.30511 10.1531L7.19601 9.73036L7.48181 9.4691H7.12851L7.01931 9.04646L6.91011 9.4691H6.55681ZM8.54621 9.4691L8.83211 9.73036L8.72291 10.1531L9.00871 9.89187L9.29461 10.1531L9.18541 9.73036L9.47131 9.4691H9.11791L9.00871 9.04646L8.89961 9.4691H8.54621ZM10.5357 9.4691L10.8215 9.73036L10.7124 10.1531L10.9982 9.89187L11.2841 10.1531L11.1749 9.73036L11.4607 9.4691H11.1074L10.9982 9.04646L10.889 9.4691H10.5357ZM1.58901 6.26722L1.87481 6.52847L1.76571 6.95111L2.05151 6.68986L2.33741 6.95111L2.22821 6.52847L2.51401 6.26722H2.16071L2.05151 5.84445L1.94231 6.26722H1.58901ZM3.57851 6.26722L3.86431 6.52847L3.75511 6.95111L4.04101 6.68986L4.32681 6.95111L4.21771 6.52847L4.50351 6.26722H4.15021L4.04101 5.84445L3.93181 6.26722H3.57851ZM5.56801 6.26722L5.85381 6.52847L5.74461 6.95111L6.03051 6.68986L6.31631 6.95111L6.20711 6.52847L6.49301 6.26722H6.13971L6.03051 5.84445L5.92131 6.26722H5.56801ZM7.55741 6.26722L7.84331 6.52847L7.73411 6.95111L8.01991 6.68986L8.30581 6.95111L8.19661 6.52847L8.48241 6.26722H8.12911L8.01991 5.84445L7.91071 6.26722H7.55741ZM9.54691 6.26722L9.83271 6.52847L9.72351 6.95111L10.0094 6.68986L10.2952 6.95111L10.1861 6.52847L10.4719 6.26722H10.1186L10.0094 5.84445L9.90021 6.26722H9.54691ZM1.58311 8.39967L1.86901 8.66092L1.75981 9.08369L2.04561 8.82244L2.33151 9.08369L2.22231 8.66092L2.50811 8.39967H2.15481L2.04561 7.97703L1.93641 8.39967H1.58311ZM3.57261 8.39967L3.85841 8.66092L3.74921 9.08369L4.03511 8.82244L4.32101 9.08369L4.21181 8.66092L4.49761 8.39967H4.14431L4.03511 7.97703L3.92591 8.39967H3.57261ZM5.56211 8.39967L5.84791 8.66092L5.73871 9.08369L6.02461 8.82244L6.31041 9.08369L6.20121 8.66092L6.48711 8.39967H6.13381L6.02461 7.97703L5.91541 8.39967H5.56211ZM7.55151 8.39967L7.83741 8.66092L7.72821 9.08369L8.01401 8.82244L8.29991 9.08369L8.19071 8.66092L8.47651 8.39967H8.12321L8.01401 7.97703L7.90481 8.39967H7.55151ZM9.54101 8.39967L9.82681 8.66092L9.71761 9.08369L10.0035 8.82244L10.2893 9.08369L10.1802 8.66092L10.466 8.39967H10.1127L10.0035 7.97703L9.89431 8.39967H9.54101Z" fill="white"/>
</svg>
