<svg width="46" height="36" viewBox="0 0 46 36" fill="none" xmlns="http://www.w3.org/2000/svg">
<path d="M32.7707 30.2086C32.9569 30.2086 33.1078 30.0925 33.1078 29.9493C33.1078 29.806 32.9569 29.6899 32.7707 29.6899C32.5845 29.6899 32.4336 29.806 32.4336 29.9493C32.4336 30.0925 32.5845 30.2086 32.7707 30.2086Z" fill="black"/>
<path d="M43.889 32.8011H42.5414L42.2718 28.4445L42.0016 24.0891L41.7321 19.7331L41.4632 15.3777L41.1937 11.0217H41.0694C41.3932 10.7354 41.573 10.3667 41.5754 9.98441C41.5754 9.52035 41.3137 9.0861 40.876 8.78741C40.8926 8.69629 40.9012 8.60516 40.9012 8.51516C40.9012 7.32041 39.5959 6.33154 38.0557 6.39904C37.9619 6.23959 37.8488 6.08757 37.7178 5.9451C37.7279 5.87479 37.7329 5.80447 37.7329 5.73191C37.7329 4.04947 35.9598 2.68091 33.7805 2.68091C33.6223 2.68099 33.4643 2.68963 33.3076 2.70679C32.9405 2.22251 32.4179 1.82177 31.7918 1.54431C31.1657 1.26685 30.4578 1.12231 29.7383 1.12504C28.7817 1.12597 27.8551 1.38593 27.1156 1.86079C26.3023 1.38019 25.31 1.12172 24.2909 1.12504C23.3752 1.1251 22.4794 1.33428 21.7134 1.72691C20.2946 0.924225 18.1908 0.951225 16.7936 1.81804C15.2037 1.00916 13.0654 0.907913 11.3527 1.57954C10.4759 1.27849 9.52855 1.1237 8.57109 1.12504C4.76603 1.12504 1.67037 3.51116 1.67037 6.4446C1.67037 9.37804 4.76603 11.7647 8.57109 11.7647C10.8373 11.7647 12.9195 10.9227 14.2147 9.49729C15.1141 9.44859 15.9838 9.22484 16.7447 8.84635C17.5056 8.46786 18.1336 7.94663 18.5718 7.32998C19.3348 7.44828 20.1254 7.38681 20.8438 7.15335C21.2841 7.52449 21.8176 7.82051 22.4109 8.0229C23.0042 8.22528 23.6444 8.32967 24.2916 8.32954C24.9464 8.33089 25.5944 8.22459 26.1934 8.01752C26.7924 7.81045 27.3292 7.50722 27.7689 7.12747C28.6099 7.49294 29.5906 7.60991 30.5325 7.4571C30.7524 7.70629 31.0155 7.92791 31.3138 8.1141C31.6717 9.36454 33.1135 10.2797 34.7933 10.2797C35.3028 10.2797 35.8002 10.1965 36.2595 10.0345C36.6304 10.3152 37.0925 10.507 37.6 10.5885C37.6826 10.7483 37.7991 10.8934 37.9399 11.0217H37.1515L36.8819 15.3777L36.6117 19.7331L36.3422 24.0891L36.0733 28.4445L35.8038 32.8011V22.4297H27.7179L19.6319 17.244V22.4297L11.546 17.244V22.4297L3.46006 17.244V32.8005H2.11169C1.93451 32.7999 1.76421 32.8542 1.63792 32.9514C1.51163 33.0487 1.43959 33.1811 1.4375 33.3197V34.3564C1.4375 34.6416 1.74009 34.875 2.11169 34.875H43.889C44.066 34.8756 44.2361 34.8215 44.3623 34.7243C44.4884 34.6272 44.5604 34.4949 44.5625 34.3564V33.3197C44.5604 33.1812 44.4884 33.049 44.3623 32.9518C44.2361 32.8547 44.066 32.8005 43.889 32.8011V32.8011ZM37.048 9.01916L36.6505 8.51066L36.0245 8.85097C35.6629 9.04837 35.2327 9.1542 34.7918 9.15416C33.7237 9.15416 32.8167 8.53766 32.6823 7.72091L32.6399 7.46666L32.3675 7.32491C32.0014 7.13086 31.7075 6.86438 31.5157 6.5526L31.2362 6.10372L30.6331 6.26797C29.6448 6.53685 28.7795 6.37823 28.0507 5.93048L27.4376 5.55191L27.007 6.06379C26.7111 6.41555 26.3077 6.70402 25.8335 6.9031C25.3592 7.10218 24.829 7.20559 24.2909 7.20398C23.769 7.20463 23.2546 7.10706 22.791 6.91949C22.3274 6.73192 21.9282 6.45985 21.6272 6.12622L21.2441 5.69929L20.6713 5.96591C19.9877 6.28429 19.2488 6.3636 18.4259 6.13241L17.7768 5.95016L17.5174 6.44966C16.9093 7.61966 15.4582 8.37847 13.8194 8.38297L13.4241 8.3841L13.2135 8.64566C12.2073 9.89329 10.4715 10.6386 8.57109 10.6386C5.55881 10.6386 3.10787 8.75648 3.10787 6.44348C3.10787 4.1316 5.55809 2.25004 8.57109 2.25004C9.43934 2.25004 10.2745 2.40585 11.0529 2.71241L11.4044 2.85079L11.7429 2.69385C13.1869 2.02391 15.1124 2.14823 16.3875 2.97848L16.9151 3.3216L17.3779 2.9256C17.6231 2.71251 17.9229 2.54222 18.2577 2.42582C18.5926 2.30942 18.955 2.24953 19.3214 2.25004C20.0183 2.2478 20.6878 2.46204 21.183 2.84573L21.6552 3.21079L22.1576 2.87104C22.7504 2.47038 23.5076 2.24996 24.2909 2.25004C25.1785 2.25004 26.008 2.52229 26.6247 3.01729L27.1709 3.45491L27.6827 2.99198C27.9372 2.76009 28.2525 2.57381 28.6072 2.44578C28.9619 2.31776 29.3477 2.251 29.7383 2.25004C30.8487 2.25004 31.8334 2.7636 32.2474 3.55785L32.4882 4.02079L33.1042 3.88748C33.3629 3.83123 33.5778 3.80535 33.7805 3.80535C35.1677 3.80535 36.2954 4.66935 36.2954 5.73135C36.2954 5.8236 36.276 5.91191 36.2545 6.01935L36.2049 6.27472L36.4198 6.47104C36.6491 6.67972 36.8022 6.91147 36.8755 7.15954L37.048 7.74454L37.7818 7.57185C37.9284 7.53698 38.0485 7.52123 38.1599 7.52123C38.8779 7.52123 39.463 7.96673 39.463 8.5146C39.463 8.61866 39.4364 8.72666 39.381 8.84648L39.151 9.34091L39.7663 9.55297C39.8748 9.5891 39.9676 9.64909 40.0334 9.72567C40.0993 9.80225 40.1353 9.89213 40.1372 9.98441C40.1372 10.2465 39.8547 10.4592 39.5082 10.4592C39.3536 10.4614 39.2036 10.4176 39.0885 10.3367C38.9734 10.2558 38.9018 10.1438 38.888 10.0232L38.8333 9.50741L38.1211 9.50797C37.9042 9.50335 37.6923 9.45617 37.5048 9.37076C37.3173 9.28535 37.1602 9.16446 37.048 9.01916V9.01916ZM37.7423 18.8894L37.9076 16.2214H40.4354L40.6 18.8894H37.7423ZM37.2039 27.6008L37.3685 24.9329H40.9745L41.1398 27.6008H37.2039ZM34.2757 34.4408H29.2445V33.9795H34.2757V34.4408ZM34.3656 27.6154V31.6767H34.1406V27.6154H34.3656V27.6154ZM30.0977 32.5199V27.8961H33.4219V32.5199H30.0977ZM29.918 33.6977V33.0824H33.6016V33.6977H29.918ZM11.8817 27.8747H19.2941V29.6905H11.8817V27.8747ZM11.2082 29.6899H4.89684V27.8742H11.2082V29.6899V29.6899ZM19.9676 27.8747H27.043V29.6905H19.9676V27.8747ZM19.9676 27.3561V25.5409H27.043V27.3561H19.9676ZM19.2941 27.3561H11.8817V25.5409H19.2941V27.3561V27.3561ZM11.2082 27.3561H4.89684V25.5409H11.2082V27.3561Z" fill="black"/>
<path d="M16.1927 4.83579C16.1114 4.78284 16.0232 4.73666 15.9297 4.69797C15.8359 4.65399 15.737 4.61708 15.6343 4.58772C15.5126 4.55044 15.387 4.52127 15.2591 4.50054C15.1688 4.19197 14.9652 3.9108 14.6733 3.69166C14.4899 3.54749 14.2774 3.42795 14.0444 3.33785C13.8113 3.24504 13.5646 3.17478 13.3098 3.1286C12.3589 2.95816 11.3031 3.16629 10.6433 3.63147C10.6353 3.62922 10.6303 3.62529 10.6238 3.6236C10.4986 3.58388 10.3686 3.55411 10.2357 3.53472C9.97116 3.49891 9.70042 3.50177 9.43719 3.54316C8.93047 3.63316 8.50713 3.87616 8.35763 4.17541C8.68053 3.97027 9.08608 3.86162 9.50188 3.86885C9.69666 3.86941 9.88138 3.90204 10.046 3.95379C10.1416 3.9836 10.1674 3.99485 10.2803 4.04379C10.3435 4.07304 10.4082 4.11691 10.465 4.15797L10.7137 4.33629L11.0235 4.13491C11.5712 3.77772 12.3683 3.63935 13.0726 3.7586C13.1567 3.77097 13.2502 3.79235 13.3256 3.81035C13.391 3.8261 13.4823 3.8531 13.5901 3.89416C13.7231 3.94872 13.8913 4.02297 14.0192 4.10566C14.288 4.27329 14.4814 4.49772 14.6 4.74522L14.6963 4.94322L14.9356 4.9421C15.1017 4.94154 15.2821 4.94322 15.4373 4.96291C15.5847 4.97472 15.7909 5.02985 15.9397 5.07597C16.2617 5.18454 16.5535 5.35497 16.7807 5.58447C16.7318 5.30997 16.5162 5.03941 16.1927 4.83579" fill="black"/>
<path d="M35.9181 6.37147C35.872 6.31903 35.8198 6.27007 35.7621 6.22522C35.6952 6.1701 35.6221 6.11983 35.5436 6.07504C35.609 5.84513 35.5862 5.60525 35.4782 5.38541C35.4134 5.24317 35.3181 5.1106 35.1965 4.99335C35.1396 4.93565 35.0779 4.88097 35.0117 4.82966C34.9404 4.77399 34.8648 4.72176 34.7853 4.67329C34.2103 4.32735 33.4111 4.2126 32.7728 4.36729L32.7628 4.35716C32.6943 4.29979 32.6185 4.24814 32.5364 4.20304C32.3713 4.11461 32.1869 4.05073 31.9923 4.0146C31.6128 3.95272 31.2268 4.0146 31.0026 4.1811C31.3038 4.12 31.623 4.14472 31.9032 4.25085C32.0347 4.2981 32.1468 4.3656 32.2367 4.43985C32.2898 4.48316 32.3021 4.49722 32.3588 4.55741C32.3897 4.59285 32.4149 4.63841 32.4365 4.67947L32.5328 4.8606L32.8246 4.79929C33.3414 4.69016 33.9379 4.78972 34.3656 5.04116C34.4173 5.07041 34.472 5.10697 34.5158 5.13735C34.5539 5.16379 34.6042 5.20485 34.6603 5.25829C34.7286 5.32747 34.8112 5.4186 34.8637 5.50579C34.9765 5.68466 35.0168 5.88322 34.9959 6.07954L34.9801 6.23704L35.1433 6.29441C35.2554 6.33435 35.3776 6.37879 35.4739 6.42997C35.8064 6.60426 36.0409 6.87156 36.1294 7.17697C36.2106 6.98066 36.1754 6.74554 36.0396 6.52897C36.0057 6.47353 35.965 6.42078 35.9181 6.37147" fill="black"/>
</svg>
