<svg width="36" height="31" viewBox="0 0 36 31" fill="none" xmlns="http://www.w3.org/2000/svg">
<path d="M24 20.6667C27.3137 20.6667 30 18.3535 30 15.5C30 12.6466 27.3137 10.3334 24 10.3334C20.6863 10.3334 18 12.6466 18 15.5C18 18.3535 20.6863 20.6667 24 20.6667Z" fill="#19BCFE"/>
<path fill-rule="evenodd" clip-rule="evenodd" d="M12 31C13.5913 31 15.1174 30.4556 16.2426 29.4867C17.3679 28.5177 18 27.2036 18 25.8333V20.6666H12C10.4087 20.6666 8.88258 21.211 7.75736 22.1799C6.63214 23.1488 6 24.463 6 25.8333C6 27.2036 6.63214 28.5177 7.75736 29.4867C8.88258 30.4556 10.4087 31 12 31V31Z" fill="#09CF83"/>
<path fill-rule="evenodd" clip-rule="evenodd" d="M12 20.6667H18V10.3334H12C10.4087 10.3334 8.88258 10.8777 7.75736 11.8467C6.63214 12.8156 6 14.1298 6 15.5C6 16.8703 6.63214 18.1845 7.75736 19.1534C8.88258 20.1224 10.4087 20.6667 12 20.6667V20.6667Z" fill="#A259FF"/>
<path fill-rule="evenodd" clip-rule="evenodd" d="M12 10.3333H18V0H12C10.4087 0 8.88258 0.544344 7.75736 1.51328C6.63214 2.48222 6 3.79638 6 5.16667C6 6.53695 6.63214 7.85111 7.75736 8.82005C8.88258 9.78899 10.4087 10.3333 12 10.3333V10.3333Z" fill="#F24E1E"/>
<path fill-rule="evenodd" clip-rule="evenodd" d="M24 10.3333H18V0H24C25.5913 0 27.1174 0.544344 28.2426 1.51328C29.3679 2.48222 30 3.79638 30 5.16667C30 6.53695 29.3679 7.85111 28.2426 8.82005C27.1174 9.78899 25.5913 10.3333 24 10.3333Z" fill="#FF7262"/>
</svg>
