<svg width="46" height="36" viewBox="0 0 46 36" fill="none" xmlns="http://www.w3.org/2000/svg">
<g clip-path="url(#clip0_101_133)">
<path d="M42.8765 36H3.53755C2.60151 35.9937 1.70555 35.6151 1.04352 34.9462C0.381484 34.2772 0.00660978 33.3717 0 32.4255L0 10.1085C0.00621707 9.16226 0.380715 8.25656 1.04247 7.58733C1.70423 6.9181 2.60003 6.53915 3.53606 6.53247H42.8765C43.8125 6.53876 44.7085 6.91732 45.3705 7.58627C46.0325 8.25522 46.4074 9.16076 46.414 10.107V32.4285C46.414 32.8975 46.3226 33.3619 46.1451 33.7952C45.9675 34.2285 45.7073 34.6223 45.3792 34.9539C45.0511 35.2856 44.6616 35.5486 44.233 35.7281C43.8043 35.9076 43.3449 36 42.8809 36H42.8765ZM3.53755 8.91747H3.52716C3.21744 8.91747 2.9204 9.04184 2.7014 9.26323C2.48239 9.48462 2.35936 9.78488 2.35936 10.098V32.4405C2.35936 33.093 2.88168 33.621 3.52716 33.621H42.8883C43.198 33.621 43.4951 33.4966 43.7141 33.2752C43.9331 33.0538 44.0561 32.7536 44.0561 32.4405V10.1085V10.098C44.0561 9.78488 43.9331 9.48462 43.7141 9.26323C43.4951 9.04184 43.198 8.91747 42.8883 8.91747H42.8765H3.53755Z" fill="black"/>
<path d="M33.6319 2.86049V2.86649C33.6319 3.20623 33.4984 3.53206 33.2608 3.77229C33.0231 4.01252 32.7008 4.14749 32.3647 4.14749H14.0523C13.7162 4.14749 13.3938 4.01252 13.1562 3.77229C12.9185 3.53206 12.785 3.20623 12.785 2.86649V2.86049V2.85449C12.785 2.14649 13.3534 1.57349 14.0523 1.57349H32.3588C32.6915 1.58815 33.0068 1.72825 33.2424 1.96618C33.4781 2.20412 33.617 2.52264 33.6319 2.85899V2.86199V2.86049Z" fill="black"/>
<path d="M38.0657 3.8145V3.8355C38.0657 4.9035 37.2095 5.769 36.153 5.769H36.1308H36.1323H36.1115C35.8603 5.769 35.6116 5.71899 35.3795 5.62182C35.1475 5.52465 34.9366 5.38223 34.759 5.20269C34.5814 5.02315 34.4405 4.81 34.3444 4.57542C34.2482 4.34083 34.1988 4.08941 34.1988 3.8355V3.813V3.8145V1.9545V1.9335C34.1988 0.8655 35.055 0 36.1115 0H36.1337H36.1323H36.153C37.2095 0 38.0657 0.8655 38.0657 1.9335V1.956V1.9545V3.8145Z" fill="black"/>
<path d="M12.2167 3.8145V3.8355C12.2167 4.9035 11.3605 5.769 10.304 5.769H10.2817H10.2832H10.2624C9.75517 5.769 9.26866 5.56529 8.90996 5.20269C8.55126 4.84009 8.34974 4.3483 8.34974 3.8355V3.813V3.8145V1.9545V1.9335C8.34974 0.8655 9.20593 0 10.2624 0H10.2847H10.2832H10.304C11.3605 0 12.2167 0.8655 12.2167 1.9335V1.956V1.9545V3.8145Z" fill="black"/>
<path d="M44.2461 2.86049V2.86649C44.2461 3.20623 44.1126 3.53206 43.8749 3.77229C43.6372 4.01252 43.3149 4.14749 42.9788 4.14749H39.8078C39.4717 4.14749 39.1494 4.01252 38.9117 3.77229C38.6741 3.53206 38.5406 3.20623 38.5406 2.86649V2.86049V2.85449C38.5406 2.14649 39.1089 1.57349 39.8078 1.57349H42.9729C43.3057 1.58815 43.6209 1.72825 43.8566 1.96618C44.0922 2.20412 44.2312 2.52264 44.2461 2.85899V2.86199V2.86049Z" fill="black"/>
<path d="M7.83038 2.86049V2.86649C7.83038 3.20623 7.69687 3.53206 7.45922 3.77229C7.22157 4.01252 6.89925 4.14749 6.56316 4.14749H3.43812C3.10203 4.14749 2.77971 4.01252 2.54206 3.77229C2.30441 3.53206 2.1709 3.20623 2.1709 2.86649V2.86049V2.85449C2.1709 2.14649 2.73922 1.57349 3.43812 1.57349H6.60322C6.93123 1.58989 7.24069 1.73219 7.46846 1.97136C7.69623 2.21052 7.82514 2.52853 7.8289 2.86049H7.83038Z" fill="black"/>
<path d="M8.39574 21.837V24.837H11.273V21.837H13.018V29.658H11.273V26.367H8.39574V29.658H6.65071V21.837H8.39574Z" fill="black"/>
<path d="M21.6512 25.6545C21.705 26.1785 21.6493 26.7082 21.4878 27.2091C21.3262 27.71 21.0624 28.171 20.7134 28.5623C20.3644 28.9535 19.9379 29.2663 19.4617 29.4804C18.9855 29.6945 18.4701 29.8051 17.9489 29.805L17.8228 29.8035H17.8287H17.7857C17.2806 29.8037 16.7811 29.6967 16.3196 29.4893C15.8581 29.2819 15.4448 28.9788 15.1066 28.5997C14.7683 28.2206 14.5126 27.7738 14.356 27.2884C14.1995 26.803 14.1455 26.2898 14.1977 25.782L14.1962 25.797C14.1527 25.2751 14.2168 24.7497 14.3845 24.2541C14.5522 23.7585 14.8198 23.3035 15.1705 22.9179C15.5211 22.5323 15.9471 22.2244 16.4216 22.0138C16.896 21.8033 17.4085 21.6945 17.9266 21.6945H17.9726H17.9697L18.0602 21.693C18.5611 21.6929 19.0564 21.7985 19.5147 22.0029C19.9729 22.2074 20.3839 22.5062 20.7214 22.8802C21.0589 23.2543 21.3156 23.6955 21.4749 24.1755C21.6342 24.6555 21.6927 25.1638 21.6467 25.668L21.6482 25.6545H21.6512ZM16.0852 25.749C16.0852 27.276 16.7974 28.371 17.9712 28.371C19.1449 28.371 19.8112 27.2265 19.8112 25.701C19.8112 24.27 19.1508 23.079 17.9252 23.079C16.747 23.076 16.0852 24.222 16.0852 25.746V25.749Z" fill="black"/>
<path d="M24.009 23.316H21.9346V21.837H27.879V23.316H25.757V29.658H24.012L24.009 23.316Z" fill="black"/>
<path d="M33.396 26.319H30.5663V28.179H33.7714V29.61H28.7737V21.837H33.537V23.268H30.5188V24.8895H33.3485V26.3205L33.396 26.319Z" fill="black"/>
<path d="M34.9526 21.837H36.6976V28.179H39.7633V29.658H34.9526V21.837Z" fill="black"/>
<path d="M23.2077 16.833L20.6599 18.2205L21.1348 15.36L19.1034 13.3005L21.9331 12.8715L23.2063 10.3005L24.4794 12.876L27.3092 13.305L25.2807 15.3555L25.7555 18.216L23.2077 16.833Z" fill="black"/>
<path d="M32.0279 17.1645L30.0944 18.213L30.4713 16.02L28.9132 14.4945L31.0352 14.2095L32.0249 12.207L32.9686 14.2095L35.1381 14.4945L33.5815 16.0215L33.9109 18.2145L32.0279 17.1645Z" fill="black"/>
<path d="M37.6399 17.547L36.3667 18.2145L36.6041 16.7835L35.5669 15.783L36.9825 15.543L37.6428 14.256L38.2572 15.543L39.6728 15.783L38.683 16.7835L38.9205 18.2145L37.6399 17.547Z" fill="black"/>
<path d="M14.4336 17.1645L16.3196 18.213L15.9427 16.02L17.4993 14.493L15.3774 14.208L14.4351 12.207L13.4454 14.2095L11.3219 14.4945L12.8785 16.0215L12.5016 18.2145L14.4336 17.1645Z" fill="black"/>
<path d="M8.77413 17.547L10.0473 18.2145L9.80987 16.7835L10.8471 15.783L9.43148 15.543L8.77264 14.256L8.15832 15.543L6.74271 15.783L7.77993 16.7835L7.54251 18.2145L8.77413 17.547Z" fill="black"/>
</g>
<defs>
<clipPath id="clip0_101_133">
<rect width="46" height="36" fill="white"/>
</clipPath>
</defs>
</svg>
