<svg width="36" height="36" viewBox="0 0 36 36" fill="none" xmlns="http://www.w3.org/2000/svg">
<path d="M30.6707 30.6731H25.3366V22.3196C25.3366 20.3276 25.301 17.7633 22.5624 17.7633C19.7842 17.7633 19.3591 19.9337 19.3591 22.1746V30.6725H14.0252V13.4944H19.1457V15.8419H19.2175C19.7299 14.9657 20.4704 14.2449 21.3601 13.7562C22.2499 13.2676 23.2555 13.0294 24.2698 13.067C29.6762 13.067 30.6729 16.6231 30.6729 21.2494L30.6707 30.6731V30.6731ZM8.00642 11.1463C6.29684 11.1466 4.9107 9.7609 4.91042 8.05132C4.91013 6.34174 6.29571 4.9556 8.00529 4.95532C9.71487 4.9549 11.101 6.34062 11.1013 8.05019C11.1014 8.87117 10.7755 9.65858 10.1951 10.2392C9.61467 10.8198 8.82739 11.1461 8.00642 11.1463V11.1463ZM10.6735 30.6732H5.33384V13.4944H10.6734V30.6731L10.6735 30.6732ZM33.3299 0.00152148H2.65353C1.20368 -0.014791 0.0146975 1.14663 -0.00302124 2.59647V33.4008C0.014135 34.8514 1.20298 36.0139 2.65338 35.9987H33.3299C34.7834 36.0167 35.9769 34.8542 35.997 33.4008V2.59408C35.9763 1.14143 34.7827 -0.0198535 33.3299 -0.000869148" fill="black"/>
</svg>
