<svg width="36" height="36" viewBox="0 0 36 36" fill="none" xmlns="http://www.w3.org/2000/svg">
<path d="M2.25 2.25H33.75V33.75H2.25V2.25Z" fill="#F5DE19"/>
<path d="M23.4101 26.8594C23.6785 27.4046 24.0955 27.8629 24.613 28.1813C25.1305 28.4998 25.7275 28.6655 26.3351 28.6594C27.5614 28.6594 28.3455 28.0463 28.3455 27.1969C28.3455 26.1844 27.54 25.8222 26.19 25.2316L25.4498 24.9143C23.3123 24.0042 21.8948 22.8646 21.8948 20.4548C21.8948 18.2352 23.5823 16.5443 26.2294 16.5443C27.0863 16.4824 27.9425 16.6742 28.6911 17.0958C29.4397 17.5173 30.0477 18.1499 30.4391 18.9147L28.125 20.3941C27.9743 20.0149 27.7118 19.6904 27.3725 19.4638C27.0331 19.2372 26.6329 19.119 26.2249 19.1251C26.0469 19.1073 25.8671 19.1267 25.697 19.1822C25.5269 19.2377 25.3703 19.328 25.237 19.4474C25.1038 19.5668 24.9968 19.7126 24.9231 19.8756C24.8493 20.0386 24.8103 20.2152 24.8085 20.3941C24.8085 21.2817 25.3586 21.6417 26.6288 22.1941L27.369 22.5113C29.8845 23.5902 31.3065 24.6893 31.3065 27.1609C31.3065 29.8261 29.2129 31.2863 26.4015 31.2863C25.3061 31.3561 24.2139 31.1074 23.2567 30.5702C22.2995 30.033 21.5182 29.2303 21.0071 28.2589L23.4101 26.8594ZM12.9533 27.1159C13.4179 27.9406 13.8409 28.6381 14.8579 28.6381C15.8299 28.6381 16.4441 28.2578 16.4441 26.7784V16.7131H19.404V26.8178C19.404 29.8823 17.604 31.2773 14.9839 31.2773C14.0577 31.3279 13.1379 31.0971 12.3454 30.6152C11.5529 30.1333 10.9247 29.4229 10.5435 28.5773L12.9533 27.1159Z" fill="black"/>
</svg>
