<svg width="22" height="28" viewBox="0 0 22 28" fill="none" xmlns="http://www.w3.org/2000/svg">
<path d="M11 27.5C9.10541 25.884 7.34929 24.1123 5.75 22.2035C3.35 19.337 0.500001 15.068 0.500001 11C0.49896 8.92246 1.11426 6.89128 2.26804 5.16355C3.42182 3.43583 5.06221 2.0892 6.9816 1.29411C8.901 0.499021 11.0131 0.291201 13.0507 0.696954C15.0882 1.10271 16.9596 2.10379 18.428 3.57352C19.4056 4.5468 20.1805 5.70432 20.7078 6.97908C21.2351 8.25383 21.5044 9.62051 21.5 11C21.5 15.068 18.65 19.337 16.25 22.2035C14.6507 24.1123 12.8946 25.884 11 27.5ZM11 6.50002C9.80653 6.50002 8.66193 6.97412 7.81802 7.81804C6.97411 8.66195 6.5 9.80654 6.5 11C6.5 12.1935 6.97411 13.3381 7.81802 14.182C8.66193 15.0259 9.80653 15.5 11 15.5C12.1935 15.5 13.3381 15.0259 14.182 14.182C15.0259 13.3381 15.5 12.1935 15.5 11C15.5 9.80654 15.0259 8.66195 14.182 7.81804C13.3381 6.97412 12.1935 6.50002 11 6.50002Z" fill="black"/>
</svg>
