<svg width="32" height="32" viewBox="0 0 32 32" fill="none" xmlns="http://www.w3.org/2000/svg">
<path d="M26.6667 24.0002H24.0001V12.3335L16.0001 17.3335L8.00008 12.3335V24.0002H5.33341V8.00016H6.93341L16.0001 13.6668L25.0667 8.00016H26.6667V24.0002ZM26.6667 5.3335H5.33341C3.85341 5.3335 2.66675 6.52016 2.66675 8.00016V24.0002C2.66675 24.7074 2.9477 25.3857 3.4478 25.8858C3.94789 26.3859 4.62617 26.6668 5.33341 26.6668H26.6667C27.374 26.6668 28.0523 26.3859 28.5524 25.8858C29.0525 25.3857 29.3334 24.7074 29.3334 24.0002V8.00016C29.3334 7.29292 29.0525 6.61464 28.5524 6.11454C28.0523 5.61445 27.374 5.3335 26.6667 5.3335V5.3335Z" fill="black"/>
</svg>
