<svg width="21" height="36" viewBox="0 0 21 36" fill="none" xmlns="http://www.w3.org/2000/svg">
<path d="M16.8 2.25C17.357 2.25 17.8911 2.48705 18.2849 2.90901C18.6787 3.33097 18.9 3.90326 18.9 4.5V31.5C18.9 32.0967 18.6787 32.669 18.2849 33.091C17.8911 33.5129 17.357 33.75 16.8 33.75H4.2C3.64305 33.75 3.1089 33.5129 2.71508 33.091C2.32125 32.669 2.1 32.0967 2.1 31.5V4.5C2.1 3.90326 2.32125 3.33097 2.71508 2.90901C3.1089 2.48705 3.64305 2.25 4.2 2.25H16.8ZM4.2 0C3.08609 0 2.0178 0.474106 1.23015 1.31802C0.442499 2.16193 0 3.30653 0 4.5V31.5C0 32.6935 0.442499 33.8381 1.23015 34.682C2.0178 35.5259 3.08609 36 4.2 36H16.8C17.9139 36 18.9822 35.5259 19.7698 34.682C20.5575 33.8381 21 32.6935 21 31.5V4.5C21 3.30653 20.5575 2.16193 19.7698 1.31802C18.9822 0.474106 17.9139 0 16.8 0L4.2 0Z" fill="black"/>
<path d="M10.5 31.5C11.0569 31.5 11.5911 31.2629 11.9849 30.841C12.3787 30.419 12.6 29.8467 12.6 29.25C12.6 28.6533 12.3787 28.081 11.9849 27.659C11.5911 27.2371 11.0569 27 10.5 27C9.94304 27 9.4089 27.2371 9.01507 27.659C8.62124 28.081 8.39999 28.6533 8.39999 29.25C8.39999 29.8467 8.62124 30.419 9.01507 30.841C9.4089 31.2629 9.94304 31.5 10.5 31.5Z" fill="black"/>
</svg>
