<svg width="36" height="36" viewBox="0 0 36 36" fill="none" xmlns="http://www.w3.org/2000/svg">
<path d="M3.56287 3.95667H32.4371V32.0434H3.56287V3.95667Z" fill="#0C0824"/>
<path d="M3.56288 3.95667H32.4371V32.0434H3.56288V3.95667ZM2.25 33.3563H33.75V2.6438H2.25V33.3563ZM23.4866 15.2438C22.4494 15.2438 22.095 15.7692 22.095 16.2023C22.095 16.6748 22.3312 17.0033 23.7229 17.7244C25.7839 18.7223 26.4229 19.6797 26.4229 21.0848C26.4229 23.1852 24.822 24.3135 22.6564 24.3135C21.727 24.348 20.8032 24.1549 19.9654 23.751C19.8731 23.7117 19.8607 23.6464 19.8607 23.5407V21.609C19.8607 21.4774 19.926 21.438 20.0183 21.5044C20.8051 22.0104 21.7209 22.2791 22.6564 22.2784C23.6936 22.2784 24.1267 21.8453 24.1267 21.2547C24.1267 20.7822 23.8253 20.3625 22.4989 19.6797C20.6348 18.7875 19.8607 17.8797 19.8607 16.3722C19.8607 14.679 21.186 13.275 23.4833 13.275C24.2829 13.2407 25.0814 13.3658 25.8322 13.6429C25.8755 13.671 25.9105 13.7101 25.9336 13.7561C25.9567 13.8022 25.9672 13.8536 25.9639 13.905V15.705C25.9639 15.8097 25.8986 15.876 25.767 15.8367C25.0731 15.4372 24.2839 15.2331 23.4833 15.246L23.4866 15.2438ZM12.1984 16.8053C12.4999 16.8312 12.7361 16.8312 13.2615 16.8312C14.7971 16.8312 16.2405 16.2934 16.2405 14.2065C16.2405 12.5393 15.2033 11.7 13.4584 11.7C12.933 11.7 12.4346 11.7259 12.1984 11.7394V16.8053ZM9.86175 9.8303C9.86175 9.73805 10.0451 9.6728 10.1509 9.6728C11.279 9.6267 12.408 9.60494 13.5371 9.60755C17.1731 9.60755 18.5906 11.6022 18.5906 14.1492C18.5906 17.4825 16.1752 18.9135 13.2097 18.9135C12.7114 18.9135 12.5404 18.8877 12.186 18.8877V23.9277C12.186 24.0323 12.1466 24.0852 12.0285 24.0852H10.0204C9.91575 24.0852 9.86288 24.0458 9.86288 23.9277V9.83592L9.86175 9.8303Z" fill="#31C5F0"/>
</svg>
